<?xml version="1.0" encoding="UTF-8"?>
<svg width="60px" height="18px" viewBox="0 0 60 18" version="1.1" xmlns="http://www.w3.org/2000/svg" xmlns:xlink="http://www.w3.org/1999/xlink">
    <title>Combined Shape</title>
    <g id="Symbols" stroke="none" stroke-width="1" fill="none" fill-rule="evenodd">
        <g id="components-/-Header" transform="translate(-690.000000, -29.000000)" fill="#32312F" fill-rule="nonzero">
            <g id="Group" transform="translate(80.000000, 28.000000)">
                <path d="M642.420567,1.67013017 L642.420567,6.28176342 L634.634292,6.28176342 C634.227314,6.28176342 633.897239,6.61198303 633.897239,7.0196097 C633.897239,7.42723638 634.227314,7.7578371 634.634292,7.7578371 L634.634292,7.7578371 L637.382631,7.7578371 C638.798868,7.7540237 640.157999,8.3179895 641.15698,9.32428243 C642.674867,10.8442072 643.136286,13.1267635 642.328421,15.1183757 C641.520557,17.1099879 639.600641,18.4232396 637.454585,18.4518383 L637.454585,18.4518383 L629.197428,18.4518383 L629.197428,13.840205 L637.382631,13.840205 C637.788086,13.840205 638.116638,13.5111293 638.116638,13.1050282 C638.116638,12.6989272 637.788086,12.3698515 637.382631,12.3698515 L637.382631,12.3698515 L634.634292,12.3698515 C631.684178,12.3698515 629.292944,9.97442538 629.292944,7.01999081 C629.292944,4.06517455 631.684178,1.67013017 634.634292,1.67013017 L634.634292,1.67013017 L642.420567,1.67013017 Z M618.466521,1.56999118 C623.014056,1.56999118 626.716216,5.19216647 626.849336,9.71082197 L626.853043,9.96276338 L626.853043,18.3555356 L622.233172,18.3555356 L622.233172,9.96276338 L622.234416,9.96276338 C622.234416,7.88026161 620.547472,6.19206037 618.466521,6.19206037 C616.385571,6.19206037 614.698627,7.88026161 614.698627,9.96276338 C614.698627,12.0452651 616.385571,13.7334664 618.466521,13.7334664 C618.980294,13.7334664 619.47005,13.6305599 619.91633,13.4442198 L619.916514,18.2305527 C619.445513,18.3127064 618.961015,18.3555356 618.466521,18.3555356 C613.834774,18.3555356 610.08,14.5979635 610.08,9.96276338 C610.08,5.32756329 613.834774,1.56999118 618.466521,1.56999118 Z M662.400617,1.54816171 C666.438552,1.55280169 669.718378,4.78837416 669.787649,8.80493507 L669.788763,8.92688556 L669.788763,18.355077 L665.16756,18.355077 L665.16756,8.92688556 C665.16756,7.42588365 663.969053,6.20435966 662.475636,6.16471308 L662.400723,6.16371982 L662.325598,6.16471308 C660.857071,6.20369888 659.673705,7.38549448 659.634668,8.85207254 L659.633673,8.92688556 L659.633673,18.355077 L659.6,18.3541617 L659.600906,18.3555356 L654.979703,18.3555356 L654.979703,8.92734409 C654.979703,7.42634218 653.781195,6.20481819 652.287778,6.16517161 L652.212866,6.16417835 L652.137741,6.16517161 C650.669214,6.20415741 649.485848,7.38595301 649.446811,8.85253107 L649.445816,8.92734409 L649.445816,18.3555356 L644.824613,18.3555356 L644.824613,8.92734409 L644.825727,8.8053936 C644.894306,4.8289983 648.109549,1.61804977 652.091851,1.54972627 L652.21276,1.54862024 C654.187581,1.5508895 655.981072,2.32595447 657.306351,3.58722491 C658.6044,2.35163993 660.352204,1.58233752 662.279709,1.54926773 L662.400617,1.54816171 Z" id="Combined-Shape"></path>
            </g>
        </g>
    </g>
</svg>